HIERARCHY
ROOT root
{
	OFFSET	0	13.1	24.9
	CHANNELS 6  Xposition Yposition Zposition Xrotation Yrotation Zrotation
	JOINT spine_1
	{
		OFFSET	0	9.99999	0
		CHANNELS 3  Xrotation Yrotation Zrotation
		JOINT spine_2
		{
			OFFSET	0	112	-10
			CHANNELS 3  Xrotation Yrotation Zrotation
			JOINT spine_3
			{
				OFFSET	0	206.5	19.3
				CHANNELS 3  Xrotation Yrotation Zrotation
				JOINT spine_4
				{
					OFFSET	0	110.4	14.6
					CHANNELS 3  Xrotation Yrotation Zrotation
					JOINT neck_1
					{
						OFFSET	0	71.8	-50.3
						CHANNELS 3  Xrotation Yrotation Zrotation
						JOINT neck_2
						{
							OFFSET	0	86.2	-25.8
							CHANNELS 3  Xrotation Yrotation Zrotation
							JOINT head_ee
							{
								OFFSET	0	179.8	-8.7
								CHANNELS 3  Xrotation Yrotation Zrotation
								End Site
								{
									OFFSET	1	0	0
								}
							}
						}
					}
					JOINT left_clavicle
					{
						OFFSET	-43.2	22.4	-70.8
						CHANNELS 3  Xrotation Yrotation Zrotation
						JOINT left_shoulder
						{
							OFFSET	-93.9	-5.79999	48.7
							CHANNELS 3  Xrotation Yrotation Zrotation
							JOINT left_elbow
							{
								OFFSET	-291.4	-30.8	15.2
								CHANNELS 3  Xrotation Yrotation Zrotation
								JOINT left_lowarm_twist
								{
									OFFSET	-110.7	-3.89999	13.6
									CHANNELS 3  Xrotation Yrotation Zrotation
									JOINT left_hand
									{
										OFFSET	-110.7	-3.89999	13.6
										CHANNELS 3  Xrotation Yrotation Zrotation
										JOINT left_ee
										{
											OFFSET	-80.8	-5.10001	12.1
											CHANNELS 3  Xrotation Yrotation Zrotation
											End Site
											{
												OFFSET	1	0	0
											}
										}
									}
								}
							}
						}
					}
					JOINT right_clavicle
					{
						OFFSET	43.2	22.4	-70.8
						CHANNELS 3  Xrotation Yrotation Zrotation
						JOINT right_shoulder
						{
							OFFSET	93.9	-5.79999	48.7
							CHANNELS 3  Xrotation Yrotation Zrotation
							JOINT right_elbow
							{
								OFFSET	291.4	-30.8	15.2
								CHANNELS 3  Xrotation Yrotation Zrotation
								JOINT right_lowarm_twist
								{
									OFFSET	110.7	-3.89999	13.6
									CHANNELS 3  Xrotation Yrotation Zrotation
									JOINT right_hand
									{
										OFFSET	110.7	-3.89999	13.6
										CHANNELS 3  Xrotation Yrotation Zrotation
										JOINT right_ee
										{
											OFFSET	80.8	-5.10001	12.1
											CHANNELS 3  Xrotation Yrotation Zrotation
											End Site
											{
												OFFSET	1	0	0
											}
										}
									}
								}
							}
						}
					}
				}
			}
		}
	}
	JOINT left_hip
	{
		OFFSET	-82.8	-127.5	0.300001
		CHANNELS 3  Xrotation Yrotation Zrotation
		JOINT left_knee
		{
			OFFSET	-28.2	-396.7	2.2
			CHANNELS 3  Xrotation Yrotation Zrotation
			JOINT left_ankle
			{
				OFFSET	-11.7	-411.3	35.4
				CHANNELS 3  Xrotation Yrotation Zrotation
				JOINT left_toes
				{
					OFFSET	0	-60	-88.6
					CHANNELS 3  Xrotation Yrotation Zrotation
					JOINT left_foot_ee
					{
						OFFSET	-22.5	-16.5	-42.2
						CHANNELS 3  Xrotation Yrotation Zrotation
						End Site
						{
							OFFSET	1	0	0
						}
					}
				}
			}
		}
	}
	JOINT right_hip
	{
		OFFSET	82.8	-127.5	0.300001
		CHANNELS 3  Xrotation Yrotation Zrotation
		JOINT right_knee
		{
			OFFSET	28.2	-396.7	2.2
			CHANNELS 3  Xrotation Yrotation Zrotation
			JOINT right_ankle
			{
				OFFSET	11.7	-411.3	35.4
				CHANNELS 3  Xrotation Yrotation Zrotation
				JOINT right_toes
				{
					OFFSET	0	-60	-88.6
					CHANNELS 3  Xrotation Yrotation Zrotation
					JOINT right_foot_ee
					{
						OFFSET	22.5	-16.5	-42.2
						CHANNELS 3  Xrotation Yrotation Zrotation
						End Site
						{
							OFFSET	1	0	0
						}
					}
				}
			}
		}
	}
}
MOTION
Frames: 9
Frame Time: 0.02
3177.02 653.055 -1669.29 -11.9324199835 73.9498906667 9.88454047272 1.48742 1.00935 2.56529 1.49068 0.844129 2.62426 1.53027 0.347461 2.73463 1.52067 0.774833 2.64554 -11.5448 7.3813 -2.9644 -11.6407 15.8994 -0.816291 -0.0 0.0 -0.0 0.512774 24.2627 3.49083 -24.6688 -4.55777 70.8586 0.281036 -7.92579 0.0194691 -47.6002 -3.79325 4.55154 -0.230969 27.818 9.64936 -0.0 0.0 -0.0 12.3648 4.82926 -24.9658 18.211 46.4744 -77.3213 0.653918 17.9489 -0.103272 -68.4936 6.35394 -5.2862 -4.06687 13.418 35.1165 0.0 0.0 0.0 23.4263 -4.83271 -6.15046 0.61568 -0.025842 -0.0909453 1.89953 -2.67815 -0.281865 -28.8963 0.0 0.0 -0.0 0.0 -0.0 -6.42071 -42.8731 12.0398 -1.22503 -0.0484991 -0.181739 34.6455 29.1959 5.30606 -6.90739 0.0 0.0 0.0 0.0 0.0 
3159.57072539 653.6 -1667.30412092 -10.8375526685 73.346185942 9.3171265471 1.42153 0.960153 2.42287 1.42443 0.804083 2.47901 1.46012 0.331572 2.58491 1.45155 0.735523 2.5002 -10.5647 8.97795 -4.28666 -10.6553 19.7842 -1.81596 -0.0 0.0 -0.0 1.06253 23.6551 4.18365 -23.8579 -4.73007 70.2749 0.316405 -8.90814 0.0246466 -47.399 -3.77015 4.54 -0.0585848 26.6678 10.1948 -0.0 0.0 -0.0 12.3423 5.57245 -24.9482 17.7786 46.3753 -77.8615 0.65754 18.0419 -0.104392 -66.6128 6.11472 -5.25902 -3.95296 10.8183 33.0012 0.0 0.0 0.0 23.479 -4.86829 -6.46475 -3.31787 0.122318 0.494427 5.0208 0.474341 -0.731669 -28.3173 0.0 0.0 -0.0 0.0 -0.0 -6.43622 -43.2595 12.6546 -2.62885 -0.0992778 -0.391193 32.7814 27.7067 5.00522 -6.67879 0.0 0.0 0.0 0.0 0.0 
3159.58057187 653.6 -1667.21943328 -11.0153494815 73.6192987791 9.50257555442 1.42153 0.960153 2.42287 1.42443 0.804083 2.47901 1.46012 0.331572 2.58491 1.45155 0.735523 2.5002 -10.5647 8.97795 -4.28666 -10.6553 19.7842 -1.81596 -0.0 0.0 -0.0 1.06253 23.6551 4.18365 -23.8579 -4.73007 70.2749 0.316405 -8.90814 0.0246466 -47.399 -3.77015 4.54 -0.0585848 26.6678 10.1948 -0.0 0.0 -0.0 12.3423 5.57245 -24.9482 17.7786 46.3753 -77.8615 0.65754 18.0419 -0.104392 -66.6128 6.11472 -5.25902 -3.95296 10.8183 33.0012 0.0 0.0 0.0 23.479 -4.86829 -6.46475 -3.31787 0.122318 0.494427 5.0208 0.474341 -0.731669 -28.3173 0.0 0.0 -0.0 0.0 -0.0 -6.43622 -43.2595 12.6546 -2.62885 -0.0992778 -0.391193 32.7814 27.7067 5.00522 -6.67879 0.0 0.0 0.0 0.0 0.0 
3136.81784106 654.021 -1665.10104825 -10.9385818267 73.3048167901 9.57450984666 1.39429 0.826415 2.52806 1.3976 0.663929 2.57548 1.42831 0.174367 2.65391 1.41897 0.591173 2.59314 -9.10952 10.0665 -2.52479 -9.18038 20.619 -0.0811773 -0.0 0.0 -0.0 1.17347 23.3652 4.31341 -23.7046 -4.84112 69.9076 0.40643 -11.3836 0.0405086 -47.7254 -3.80764 4.55868 -0.0472294 27.2245 10.4578 -0.0 0.0 -0.0 12.2163 5.75777 -24.6745 18.008 46.5412 -78.4892 0.677245 18.546 -0.110577 -64.5758 5.85668 -5.22069 -3.61886 9.18308 29.6025 0.0 0.0 0.0 24.4745 -3.78391 -7.35616 -7.38437 0.232858 1.10858 6.1012 0.0665591 -0.887009 -27.4803 0.0 0.0 -0.0 0.0 -0.0 -5.11559 -42.8914 14.1714 -6.36998 -0.209371 -0.954682 33.0429 25.4138 4.91021 -5.60711 0.0 0.0 0.0 0.0 0.0 
3085.28283901 653.459 -1654.97863059 -11.3731423728 74.1334449391 10.0494958912 1.4669 0.516261 2.52045 1.47036 0.354885 2.54817 1.48669 -0.121933 2.56986 1.47759 0.285322 2.55689 -6.82414 11.6203 -3.84231 -6.74219 24.3438 -1.5157 -0.0 0.0 -0.0 1.83976 24.6924 5.30143 -24.5001 -7.81791 67.1707 0.63008 -17.3345 0.0960478 -49.4324 -4.00541 4.65289 -0.334213 27.9994 9.14581 -0.0 0.0 -0.0 11.6389 6.36718 -23.4128 16.1954 46.0186 -79.0583 0.640386 17.6006 -0.0991415 -61.2342 5.43664 -5.13794 -3.60237 5.1572 27.5124 0.0 0.0 0.0 22.0148 -1.94438 -4.92634 -8.07456 0.247278 1.21351 9.41713 0.3765 -1.35294 -28.3401 0.0 0.0 -0.0 0.0 -0.0 -4.45445 -41.4496 16.0168 -11.2786 -0.297621 -1.70251 32.2363 15.6627 4.43009 -7.10808 0.0 0.0 0.0 0.0 0.0 
3049.21328862 656.829 -1649.50831587 -9.87757680252 75.1589866188 8.11414636439 1.62715 0.424324 2.51251 1.63062 0.263639 2.5344 1.6426 -0.202239 2.54004 1.63365 0.201318 2.54011 -4.18548 12.9574 -2.97222 -3.91371 25.9868 -0.994034 -0.0 0.0 -0.0 2.11876 24.9311 5.68539 -24.5995 -8.86764 65.6365 0.755229 -20.5117 0.136649 -50.5505 -4.13644 4.71138 -0.529186 28.3372 8.20246 -0.0 0.0 -0.0 11.098 4.68255 -22.1765 11.9436 45.0125 -78.5396 0.694275 18.9793 -0.116055 -55.8891 4.77638 -4.95492 -3.92402 3.92881 29.35 0.0 0.0 0.0 19.3672 -2.26847 -2.54366 -8.9107 0.263052 1.34084 18.886 0.996189 -2.60697 -26.6289 0.0 0.0 -0.0 0.0 -0.0 -7.83117 -36.4246 15.4208 -15.0692 -0.321773 -2.28351 30.0341 11.524 4.08291 -6.86635 0.0 0.0 0.0 0.0 0.0 
3020.62420383 654.72 -1651.82979841 -7.22012212934 75.4853581525 4.84467031223 1.58901 0.281018 2.56566 1.59267 0.117244 2.57834 1.59819 -0.35632 2.5563 1.58907 0.0517328 2.58048 -2.83157 13.8939 -3.39741 -2.38377 27.8863 -1.63676 -0.0 0.0 -0.0 2.20508 24.5509 5.78425 -25.4035 -10.2496 64.5858 0.821621 -22.1465 0.1608 -51.2006 -4.21313 4.74422 -0.629299 27.5151 7.33386 -0.0 0.0 -0.0 11.1283 6.03083 -22.2813 9.45154 44.4963 -78.1177 0.645008 17.7197 -0.100544 -54.1929 4.57067 -4.88403 -3.87692 2.64313 28.3136 0.0 0.0 0.0 16.7315 -0.163224 -0.639138 -8.7233 0.259678 1.31229 23.243 1.37576 -3.13862 -25.7059 0.0 0.0 -0.0 0.0 -0.0 -9.80931 -30.2762 15.0405 -18.6458 -0.309295 -2.83204 29.1266 2.25054 3.83569 -7.52356 0.0 0.0 0.0 0.0 0.0 
2991.62020878 652.738 -1654.94298932 -3.44183135517 74.2568663706 0.0459249680197 1.56801 0.239681 2.68276 1.57201 0.0685476 2.69257 1.57548 -0.426219 2.65953 1.56561 -0.00100529 2.69344 -4.15446 14.8467 -1.44908 -3.87255 28.3066 0.872899 -0.0 0.0 -0.0 2.17604 24.3291 5.73554 -25.6191 -11.7159 64.1062 1.06966 -27.9173 0.265883 -51.3972 -4.2364 4.75398 -0.656504 26.3264 6.71378 -0.0 0.0 -0.0 10.4601 1.42554 -20.6819 6.77671 43.5609 -79.1307 0.825291 22.2358 -0.162186 -50.6625 4.14963 -4.71711 -4.18056 2.19741 30.4197 0.0 0.0 0.0 13.5435 0.354838 1.62948 -8.83561 0.261711 1.3294 29.8867 1.53045 -3.88849 -24.2173 0.0 0.0 -0.0 0.0 -0.0 -11.1284 -22.0879 15.7483 -24.7366 -0.209427 -3.76087 25.0694 -10.0521 3.34462 -8.23319 0.0 0.0 0.0 0.0 0.0 
2967.94793941 651.038 -1661.66645233 1.21763479906 73.7059797832 -4.85299349369 1.47807 -0.0142417 2.74179 1.48224 -0.188613 2.73533 1.47336 -0.691874 2.65316 1.46363 -0.264339 2.72906 -5.18619 15.5551 0.3021 -5.02171 28.4574 3.04625 -0.0 0.0 -0.0 2.10624 23.5169 5.60343 -24.2396 -12.576 63.6724 1.30504 -32.8803 0.385103 -51.64 -4.26517 4.76591 -0.746439 26.2595 6.18467 -0.0 0.0 -0.0 10.2056 0.960168 -20.1273 3.24212 42.794 -77.7777 0.884813 23.6681 -0.185399 -48.4716 3.89375 -4.60059 -4.33982 1.43213 31.2453 0.0 0.0 0.0 10.7057 0.637544 2.93693 -8.67575 0.258807 1.30504 34.6449 1.28334 -4.37622 -23.0474 0.0 0.0 -0.0 0.0 -0.0 -13.8922 -12.6408 12.532 -29.2909 -0.070573 -4.44584 24.1508 -17.4871 3.28915 -8.67658 0.0 0.0 0.0 0.0 0.0 
